<?xml version="1.0" standalone="no"?>
<!DOCTYPE svg PUBLIC "-//W3C//DTD SVG 20010904//EN"
 "http://www.w3.org/TR/2001/REC-SVG-20010904/DTD/svg10.dtd">
<svg version="1.0" xmlns="http://www.w3.org/2000/svg"
 width="227.000000pt" height="227.000000pt" viewBox="0 0 227.000000 227.000000"
 preserveAspectRatio="xMidYMid meet">
<metadata>
Created by potrace 1.11, written by Peter Selinger 2001-2013
</metadata>
<g transform="translate(0.000000,227.000000) scale(0.100000,-0.100000)"
fill="#000000" stroke="none">
<path d="M2127 2004 c-1 -1 -20 -4 -42 -7 -22 -3 -69 -10 -105 -16 -36 -5 -85
-13 -110 -16 -25 -4 -54 -8 -65 -10 -11 -2 -101 -13 -200 -26 -99 -12 -186
-27 -192 -32 -29 -22 -14 -55 42 -93 159 -105 265 -325 301 -624 10 -82 11
-352 2 -405 -26 -143 -79 -219 -173 -245 -86 -24 -202 17 -257 90 -20 28 -53
124 -39 115 5 -2 12 -17 16 -32 22 -91 115 -153 221 -150 127 4 198 102 197
269 -1 94 -29 162 -93 226 -83 82 -221 121 -325 92 -95 -27 -183 -143 -210
-277 -40 -204 56 -413 237 -518 90 -51 263 -70 366 -38 120 35 252 167 297
293 31 87 35 146 35 603 1 376 4 476 16 536 19 91 55 165 102 208 37 34 38 63
2 60 -12 -1 -22 -2 -23 -3z m-654 -1053 c6 -6 -8 -9 -37 -9 -51 0 -107 -30
-125 -67 -5 -11 -10 -15 -10 -9 -2 19 44 78 69 91 27 13 87 10 103 -6z"/>
<path d="M299 1996 c-2 -3 -44 -6 -93 -9 -107 -4 -120 -16 -83 -74 45 -72 97
-238 125 -398 4 -22 7 -164 7 -315 0 -298 -6 -396 -36 -546 -5 -28 -12 -64
-15 -80 -10 -60 -48 -161 -80 -215 -19 -31 -34 -67 -34 -79 0 -22 2 -23 58
-16 31 4 122 9 202 12 357 11 351 10 323 72 -40 93 -81 225 -93 302 -19 124
-16 326 5 361 4 5 27 9 53 9 151 0 278 82 356 230 56 108 66 154 61 303 -2 73
-6 139 -8 147 -2 8 -7 33 -12 55 -17 86 -76 163 -149 195 -86 38 -164 48 -376
50 -114 0 -208 -1 -211 -4z m318 -292 c75 -15 117 -86 117 -199 0 -67 -4 -88
-27 -132 -36 -70 -108 -120 -122 -85 -19 51 -37 172 -41 281 -5 146 -3 150 73
135z"/>
</g>
</svg>
